<svg xmlns="http://www.w3.org/2000/svg" viewBox="0 0 450 168" fill="#000"><path d="M38.082 0v15.994H18.485v135.722h19.597V168H0V0h38.082ZM450 0v168h-38.082v-16.284h19.597V15.994h-19.597V0H450ZM163.186 18.14v121.557H139.79v-13.47c-2.856 4.49-6.865 8.104-12.028 10.842-5.162 2.738-11.149 4.107-17.96 4.107-7.688 0-14.718-1.971-21.09-5.914-6.37-3.942-11.396-9.5-15.076-16.673-3.68-7.173-5.52-15.414-5.52-24.722 0-9.199 1.84-17.358 5.52-24.476 3.68-7.118 8.706-12.594 15.077-16.426 6.37-3.833 13.456-5.75 21.255-5.75 5.931 0 11.588 1.287 16.97 3.86 5.383 2.574 9.667 5.996 12.852 10.267V18.14h23.397Zm68.944 29.075c8.787 0 16.751 1.944 23.89 5.832 7.14 3.887 12.77 9.39 16.89 16.509 4.119 7.118 6.178 15.331 6.178 24.64 0 9.308-2.114 17.521-6.343 24.64-4.23 7.118-9.941 12.62-17.136 16.508-7.195 3.888-15.241 5.832-24.138 5.832-8.788 0-16.697-1.944-23.727-5.832-7.03-3.887-12.55-9.39-16.559-16.508-4.01-7.119-6.014-15.332-6.014-24.64 0-9.309 2.06-17.522 6.179-24.64 4.119-7.119 9.748-12.622 16.888-16.51 7.14-3.887 15.104-5.83 23.892-5.83Zm92.175-29.075v69.156l30.647-38.602h29.988L344.736 94.36l40.533 45.337h-29.988l-30.976-38.767v38.767h-23.067V18.14h23.067ZM231.8 67.256c-6.59 0-12.11 2.327-16.559 6.981-4.449 4.654-6.673 11.307-6.673 19.959 0 8.65 2.17 15.304 6.508 19.958 4.34 4.654 9.804 6.981 16.395 6.981 4.174 0 8.1-1.013 11.78-3.039 3.68-2.026 6.619-5.065 8.815-9.116 2.197-4.052 3.296-8.98 3.296-14.784 0-8.652-2.28-15.305-6.838-19.959-4.559-4.654-10.133-6.981-16.724-6.981Zm-116.067.164c-4.284 0-8.238 1.04-11.863 3.121-3.625 2.08-6.563 5.12-8.815 9.117-2.252 3.997-3.378 8.733-3.378 14.209 0 5.476 1.126 10.267 3.378 14.373 2.252 4.107 5.218 7.255 8.897 9.446 3.68 2.19 7.607 3.285 11.781 3.285 4.284 0 8.294-1.068 12.028-3.203 3.735-2.136 6.7-5.202 8.898-9.2 2.197-3.996 3.295-8.787 3.295-14.372 0-5.586-1.098-10.377-3.295-14.374s-5.163-7.063-8.898-9.199c-3.734-2.135-7.744-3.203-12.028-3.203Z"/></svg>
