<svg xmlns="http://www.w3.org/2000/svg" viewBox="0 0 120.17 45"><path fill="currentColor" fill-rule="nonzero" d="M10.17 0v4.284H4.936v36.354h5.234V45H0V0h10.17Zm110 0v45H110v-4.362h5.233V4.284H110V0h10.17ZM43.578 4.859v32.56H37.33V33.81c-.763 1.203-1.834 2.17-3.212 2.904-1.379.733-2.978 1.1-4.796 1.1-2.054 0-3.93-.528-5.632-1.584-1.702-1.056-3.044-2.545-4.026-4.466-.983-1.921-1.474-4.129-1.474-6.622 0-2.464.491-4.65 1.474-6.556.982-1.907 2.324-3.373 4.026-4.4 1.701-1.027 3.593-1.54 5.676-1.54 1.584 0 3.094.345 4.532 1.034 1.437.69 2.581 1.606 3.432 2.75V4.859h6.248Zm18.41 7.788c2.347 0 4.474.52 6.38 1.562 1.907 1.041 3.41 2.515 4.51 4.422 1.1 1.907 1.65 4.107 1.65 6.6 0 2.493-.564 4.693-1.693 6.6-1.13 1.907-2.655 3.38-4.576 4.422-1.922 1.041-4.07 1.562-6.446 1.562-2.347 0-4.459-.52-6.336-1.562-1.878-1.041-3.352-2.515-4.422-4.422-1.071-1.907-1.606-4.107-1.606-6.6 0-2.493.55-4.693 1.65-6.6 1.1-1.907 2.603-3.38 4.51-4.422 1.906-1.041 4.033-1.562 6.38-1.562Zm24.616-7.788v18.524l8.184-10.34h8.008L92.06 25.275l10.824 12.144h-8.008l-8.272-10.384v10.384h-6.16V4.859h6.16ZM61.9 18.015c-1.76 0-3.234.623-4.422 1.87-1.188 1.247-1.782 3.029-1.782 5.346s.579 4.1 1.738 5.346c1.158 1.247 2.618 1.87 4.378 1.87a6.408 6.408 0 0 0 3.146-.814c.982-.543 1.767-1.357 2.354-2.442.586-1.085.88-2.405.88-3.96 0-2.317-.609-4.1-1.826-5.346-1.218-1.247-2.706-1.87-4.466-1.87Zm-30.995.044c-1.144 0-2.2.279-3.168.836-.968.557-1.753 1.371-2.354 2.442-.602 1.07-.902 2.34-.902 3.806 0 1.467.3 2.75.902 3.85.601 1.1 1.393 1.943 2.376 2.53.982.587 2.031.88 3.146.88a6.35 6.35 0 0 0 3.212-.858c.997-.572 1.79-1.393 2.376-2.464.586-1.07.88-2.354.88-3.85s-.294-2.78-.88-3.85c-.587-1.07-1.379-1.892-2.376-2.464a6.35 6.35 0 0 0-3.212-.858Z"/></svg>
